<?xml version="1.0" standalone="no"?>
<!DOCTYPE svg PUBLIC "-//W3C//DTD SVG 20010904//EN"
 "http://www.w3.org/TR/2001/REC-SVG-20010904/DTD/svg10.dtd">
<svg version="1.0" xmlns="http://www.w3.org/2000/svg"
 width="309.000000pt" height="220.000000pt" viewBox="0 0 309.000000 220.000000"
 preserveAspectRatio="xMidYMid meet">

<g transform="translate(0.000000,220.000000) scale(0.100000,-0.100000)"
fill="#000000" stroke="none">
<path d="M935 2103 c-53 -6 -169 -34 -223 -54 -134 -49 -233 -113 -339 -221
-127 -129 -208 -276 -255 -465 -19 -73 -22 -115 -22 -243 1 -135 4 -168 27
-255 76 -285 262 -517 516 -644 160 -81 316 -111 572 -111 l176 0 81 178 c329
721 325 711 311 745 -50 121 -169 372 -176 371 -9 -2 -41 -71 -273 -584 l-156
-345 -64 -3 c-35 -2 -97 4 -137 13 -236 53 -430 241 -489 475 -20 78 -22 222
-5 305 37 177 166 341 333 424 136 67 166 73 411 78 252 6 232 -11 162 137
-23 50 -54 117 -68 149 l-26 57 -163 -1 c-90 -1 -176 -4 -193 -6z"/>
<path d="M1710 2103 c0 -5 50 -118 111 -253 61 -135 133 -292 159 -350 26 -58
138 -305 250 -550 240 -528 223 -487 204 -494 -9 -3 -118 -6 -244 -6 -170 0
-230 -3 -238 -13 -13 -15 -142 -304 -142 -317 0 -6 211 -10 585 -10 366 0 585
4 585 10 0 5 -79 184 -176 397 -393 867 -561 1237 -639 1408 l-83 180 -186 3
c-102 1 -186 -1 -186 -5z"/>
</g>
</svg>
